<svg xmlns="http://www.w3.org/2000/svg" xmlns:xlink="http://www.w3.org/1999/xlink" viewBox="8516.046 850.781 862.177 862.176">
  <defs>
    <style>
      .cls-1 {
        opacity: 0.821;
      }

      .cls-2, .cls-3 {
        stroke: #000;
      }

      .cls-3 {
        fill: #fff;
      }

      .cls-4 {
        filter: url(#Path_1886);
      }

      .cls-5 {
        filter: url(#Path_1885);
      }

      .cls-6 {
        filter: url(#Path_1-2);
      }

      .cls-7 {
        filter: url(#Path_1);
      }
    </style>
    <filter id="Path_1" x="8516.046" y="850.781" width="560.069" height="560.069" filterUnits="userSpaceOnUse">
      <feOffset dx="-20" dy="10" input="SourceAlpha"/>
      <feGaussianBlur stdDeviation="10" result="blur"/>
      <feFlood flood-opacity="0.161"/>
      <feComposite operator="in" in2="blur"/>
      <feComposite in="SourceGraphic"/>
    </filter>
    <filter id="Path_1-2" x="8818.152" y="1152.887" width="560.07" height="560.07" filterUnits="userSpaceOnUse">
      <feOffset dx="-20" dy="10" input="SourceAlpha"/>
      <feGaussianBlur stdDeviation="10" result="blur-2"/>
      <feFlood flood-opacity="0.161"/>
      <feComposite operator="in" in2="blur-2"/>
      <feComposite in="SourceGraphic"/>
    </filter>
    <filter id="Path_1885" x="8704.984" y="945.113" width="249.021" height="296.57" filterUnits="userSpaceOnUse">
      <feOffset dx="-20" dy="5" input="SourceAlpha"/>
      <feGaussianBlur stdDeviation="5" result="blur-3"/>
      <feFlood flood-opacity="0.161"/>
      <feComposite operator="in" in2="blur-3"/>
      <feComposite in="SourceGraphic"/>
    </filter>
    <filter id="Path_1886" x="8980.636" y="1273.092" width="301.57" height="244.021" filterUnits="userSpaceOnUse">
      <feOffset dx="-20" dy="5" input="SourceAlpha"/>
      <feGaussianBlur stdDeviation="5" result="blur-4"/>
      <feFlood flood-opacity="0.161"/>
      <feComposite operator="in" in2="blur-4"/>
      <feComposite in="SourceGraphic"/>
    </filter>
  </defs>
  <g id="Group_1432" data-name="Group 1432" class="cls-1" transform="translate(8566.768 871.502)">
    <g id="Group_11" data-name="Group 11" transform="translate(604.525 800.734) rotate(-135)">
      <g id="Group_9" data-name="Group 9" transform="translate(427.223 0)">
        <g id="Group_5" data-name="Group 5" transform="translate(0 0)">
          <g id="Group_3" data-name="Group 3" transform="translate(0)">
            <g class="cls-7" transform="matrix(-0.71, 0.71, -0.71, -0.71, 7240.31, -5302.63)">
              <path id="Path_1-3" data-name="Path 1" class="cls-2" d="M424.522,22.885,427.7,66.024l-6.236,4.093-6.189,4.055-5.944,4.616-4.305,4.681-1.868,3.489-1.01,3.8-.267,7.341-.9,7.279-.982,7.55c-.166.7-3.671,15.751-3.671,15.751l-9,32.454-13.977,39.876-11.313,22.349L348.224,239.92l-7.03,6.369-8.629,6.259-12.672,7.585-15,6.661-16.8,4.459-21.412,4.379L247,277.48H224.165l-22.894-1.848L181.7,272.849l-25.289-7.623-28-16.172L109.57,232.721,91.591,213,65.522,175.013,50.4,145.069l-13.532-27.6-9.706-18.46-8.011-7.713L9.863,85.687,0,84.29v-53.2H42.456l30.769-4.959L99.6,17.582l32.262-9.256L166.9,2.294,211.249,0H261.38l31.748,2.294,51.9,6.032,39.2,4.369,16.938,2.274,10.4,2.269,4.446,1.363,4.547,1.9,3.957,2.386" transform="translate(8869.2 1370.14) rotate(-135)"/>
            </g>
            <path id="Path_2" data-name="Path 2" class="cls-3" d="M306.58,48.837h0l1.82,5.508,2.083,7.536,1.167,7.345.516,9.329-.109,10.472L311.413,99.7,308.56,119.51l-4.693,21.252-7.177,22.749-8.721,20.315-4.3,7.228-4.711,6.617-5.083,5.652-5.931,5.362-8.067,6.162-8.607,5.2-10.006,4.869-10.279,4.127-12.419,4.076-11.432,2.6L193.5,237.871l-14.407,1.539-13.256.331-12.878-.331-12.655-.746-16.61-2.908-11.03-2.782-12.2-4.675-15.8-7.242-13.965-9.1L55.351,198.733l-7.982-7.6-7.875-8.259-8.737-9.838-7.1-10.405-6.885-11.2-5.693-12.472-6.116-14L.9,108.689,0,87.409l.465-11.5L1.994,63.766l2.542-9.855L8.22,44.306l1.973-4.773,2.825-4.758,3.4-4.325,4.066-4.066,4.742-4.218,5.337-3.5h0l5.38-3.127,5.637-2.527,12.79-4.433L65.939,6.107,81.3,3.243,97.868,1.3,129.687,0h64.248L225.2,2.749l15.656,2.963,15.836,4.231,9.7,3.512,9.169,4.365,9.856,6.071,8.291,7.013,6.755,8.033,3.324,4.821Z" transform="translate(65.241 21.246)"/>
          </g>
        </g>
      </g>
      <g id="Group_10" data-name="Group 10" transform="translate(0 0)">
        <g id="Group_5-2" data-name="Group 5" transform="translate(0 0)">
          <g id="Group_3-2" data-name="Group 3">
            <g class="cls-6" transform="matrix(-0.71, 0.71, -0.71, -0.71, 7667.53, -5302.63)">
              <path id="Path_1-4" data-name="Path 1" class="cls-2" d="M3.183,22.885,0,66.024l6.237,4.093,5.451,4.754,6.681,3.916,4.305,4.681,2.878,7.287v7.064s1.98,14.4,2.146,15.107,3.67,15.751,3.67,15.751l9,32.454,13.976,39.876,11.313,22.349L79.481,239.92l7.03,6.369,8.628,6.259,12.671,7.585,15.005,6.661,16.8,4.459,21.412,4.379,19.681,1.848h22.832l22.894-1.848L246,272.849l25.289-7.623,28.006-16.172,18.839-16.333L336.114,213l26.069-37.992L377.3,145.069l13.532-27.6,9.707-18.46,8.01-7.713,9.293-5.605,9.863-1.4v-53.2H385.249L354.48,26.133,328.1,17.582,295.841,8.326,260.808,2.294,216.456,0H166.325L134.576,2.294l-51.9,6.032-39.2,4.369L26.535,14.969l-10.4,2.269L11.688,18.6,7.14,20.5,3.183,22.885" transform="translate(9171.29 1672.24) rotate(-135)"/>
            </g>
            <path id="Path_2-2" data-name="Path 2" class="cls-3" d="M4.682,48.837,1.715,59.707,0,76.089v22.56L2.7,119.51l4.693,21.252,7.178,22.749,8.719,20.315,8.695,14.126,11.333,10.733,16.674,11.362,20.285,9,23.851,6.673,28.039,3.7H158.3l14.715-.926,14.749-2.322,12.14-3.883L210.8,228.3l15.279-7.848,14.159-8.744,7.884-5.939,7.861-6.58,8.125-7.5,8.233-8.233,8.126-10.515,7.139-10.3,6.884-11.2,5.694-12.472,6.116-14,4.061-16.268,1.25-9.96.427-10.379-.913-12.609-1.859-11.976-2.738-9.84-3.488-9.621-5.366-9.534-4.431-5.68-6.489-5.859-6.125-4.3-10.95-5.926L257.5,8.985l-12.18-2.877L213.392,1.3,181.573,0H117.325L86.063,2.749,70,5.172,54.572,9.942l-10.2,3.8-9.522,4.608L26.04,23.782,17.552,30.9l-7.171,8.539Z" transform="translate(51.204 21.246)"/>
          </g>
        </g>
      </g>
    </g>
    <g class="cls-5" transform="matrix(1, 0, 0, 1, -8566.77, -871.5)">
      <path id="Path_1885-2" data-name="Path 1885" d="M1863.048,1202.569l-4.221-15.76L1852.12,1170l-10.413-23.986-14.7-18.5-19.981-20.121-30.931-24.773-21.776-10.75-24.814-6.8L1715.5,1062.8h-11.856l-40.655,6.115,18.99-12.586,36.224-8.68L1740.3,1051l16.057,5.325,22.291,12.586,30.849,21.027,36.156,40.538,24.243,44.954,7.121,32.211v35.289l-7.121,30.212-11.063,41.074,6.587-74.4Z" transform="translate(7076.99 -92.53)"/>
    </g>
    <g class="cls-4" transform="matrix(1, 0, 0, 1, -8566.77, -871.5)">
      <path id="Path_1886-2" data-name="Path 1886" d="M13.963,154.923l4.221-15.76,6.708-16.807L35.3,98.37,50,79.867,69.982,59.746l30.931-24.773,21.776-10.75L147.5,17.418,161.51,15.15h11.856l40.655,6.116L195.032,8.68,158.808,0,136.716,3.355,120.659,8.68,98.369,21.266,67.519,42.292,31.364,82.83,7.121,127.785,0,160v35.289L7.121,225.5,18.184,266.57l-6.587-74.4Z" transform="translate(9282.21 1283.09) rotate(90)"/>
    </g>
  </g>
</svg>
