<svg xmlns="http://www.w3.org/2000/svg" xmlns:xlink="http://www.w3.org/1999/xlink" viewBox="7116.797 335.983 330.483 459.33"><defs><style>.a{stroke:#000;}.b,.c{fill:#fff;stroke:#fff;}.b{stroke-width:10px;}.d{filter:url(#a);}</style><filter id="a" x="7116.797" y="336.683" width="330.483" height="458.63" filterUnits="userSpaceOnUse"><feOffset dx="-20" dy="20" input="SourceAlpha"/><feGaussianBlur stdDeviation="10" result="b"/><feFlood flood-opacity="0.161"/><feComposite operator="in" in2="b"/><feComposite in="SourceGraphic"/></filter></defs><g transform="matrix(0.839, 0.545, -0.545, 0.839, 8020.019, -588.77)"><g transform="translate(0.984 1105.784)"><g class="d" transform="matrix(0.84, -0.54, 0.54, 0.84, -6406.47, 3756.02)"><path class="a" d="M11.609,0,0,50.993V453.746l7.337,5.409H18.587l4.351-9.015V50.993Z" transform="matrix(0.84, 0.54, -0.54, 0.84, 7417.56, 347.05)"/></g><g transform="translate(29.546 474.291) rotate(-180)"><path class="b" d="M0,0V399.844l11.285,45,11.978-45V0Z" transform="translate(3.06 12.09)"/><path d="M0,0H29.463l-15,57.625Z" transform="translate(0.009 413.299)"/><path class="c" d="M0,0,3.872,19.029,7.512,0Z" transform="translate(10.804 455.091)"/><path class="a" d="M0,0H2.318L1.2,6Z" transform="translate(13.499 468.289)"/><path class="a" d="M3.89,0H26.458c.125,0,.226.2,3.088,7.272,0,.251-29.546.251-29.546,0C3.664.2,3.765,0,3.89,0Z" transform="translate(0 0)"/></g></g></g></svg>